<svg class="marks" width="592" height="242" viewBox="0 0 592 242" version="1.1" xmlns="http://www.w3.org/2000/svg" xmlns:xlink="http://www.w3.org/1999/xlink"><g transform="translate(67,5)"><g class="mark-group role-frame root"><g transform="translate(0,0)"><path class="background" d="M0.5,0.5h200v200h-200Z" style="fill: none; stroke: #ddd;"></path><g><g class="mark-group role-axis"><g transform="translate(0.5,0.5)"><path class="background" d="M0,0h0v0h0Z" style="pointer-events: none; fill: none;"></path><g><g class="mark-rule role-axis-grid" style="pointer-events: none;"><line transform="translate(0,200)" x2="200" y2="0" style="fill: none; stroke: #ddd; stroke-width: 1; opacity: 1;"></line><line transform="translate(0,156)" x2="200" y2="0" style="fill: none; stroke: #ddd; stroke-width: 1; opacity: 1;"></line><line transform="translate(0,111)" x2="200" y2="0" style="fill: none; stroke: #ddd; stroke-width: 1; opacity: 1;"></line><line transform="translate(0,67)" x2="200" y2="0" style="fill: none; stroke: #ddd; stroke-width: 1; opacity: 1;"></line><line transform="translate(0,22)" x2="200" y2="0" style="fill: none; stroke: #ddd; stroke-width: 1; opacity: 1;"></line></g></g></g></g><g class="mark-rect role-mark marks"><path d="M51,81.4h9v118.6h-9Z" style="fill: #4c78a8;"></path><path d="M41,4.0222222222222115h9v195.9777777777778h-9Z" style="fill: #4c78a8;"></path><path d="M31,8.155555555555566h9v191.84444444444443h-9Z" style="fill: #4c78a8;"></path><path d="M61,155.77777777777777h9v44.22222222222223h-9Z" style="fill: #4c78a8;"></path><path d="M111.00000000000001,195.53333333333333h8.999999999999986v4.466666666666669h-8.999999999999986Z" style="fill: #4c78a8;"></path><path d="M101,193.17777777777778h9.000000000000014v6.822222222222223h-9.000000000000014Z" style="fill: #4c78a8;"></path><path d="M21,186h9v14h-9Z" style="fill: #4c78a8;"></path><path d="M71,177.93333333333334h9v22.066666666666663h-9Z" style="fill: #4c78a8;"></path><path d="M211,199.95555555555555h9.000000000000028v0.04444444444445139h-9.000000000000028Z" style="fill: #4c78a8;"></path><path d="M171,199.7111111111111h9v0.2888888888888914h-9Z" style="fill: #4c78a8;"></path><path d="M11,196.75555555555556h9v3.24444444444444h-9Z" style="fill: #4c78a8;"></path><path d="M131,198.17777777777778h9v1.8222222222222229h-9Z" style="fill: #4c78a8;"></path><path d="M91,190.62222222222223h9v9.377777777777766h-9Z" style="fill: #4c78a8;"></path><path d="M141,198.9111111111111h9v1.0888888888889028h-9Z" style="fill: #4c78a8;"></path><path d="M81,185.57777777777778h9v14.422222222222217h-9Z" style="fill: #4c78a8;"></path><path d="M121,197.66666666666666h9v2.333333333333343h-9Z" style="fill: #4c78a8;"></path><path d="M241,199.93333333333334h9v0.06666666666666288h-9Z" style="fill: #4c78a8;"></path><path d="M201,199.88888888888889h9v0.11111111111111427h-9Z" style="fill: #4c78a8;"></path><path d="M151,199.46666666666667h9v0.5333333333333314h-9Z" style="fill: #4c78a8;"></path><path d="M191,199.88888888888889h9v0.11111111111111427h-9Z" style="fill: #4c78a8;"></path><path d="M230.99999999999997,199.9777777777778h9.000000000000028v0.022222222222211485h-9.000000000000028Z" style="fill: #4c78a8;"></path><path d="M181,199.84444444444443h9v0.15555555555556566h-9Z" style="fill: #4c78a8;"></path><path d="M1,199.88888888888889h9v0.11111111111111427h-9Z" style="fill: #4c78a8;"></path><path d="M161,199.77777777777777h9v0.22222222222222854h-9Z" style="fill: #4c78a8;"></path><path d="M331,199.9777777777778h9v0.022222222222211485h-9Z" style="fill: #4c78a8;"></path><path d="M251,199.93333333333334h9v0.06666666666666288h-9Z" style="fill: #4c78a8;"></path><path d="M510.99999999999994,199.9777777777778h9.000000000000057v0.022222222222211485h-9.000000000000057Z" style="fill: #4c78a8;"></path><path d="M271,199.95555555555555h9v0.04444444444445139h-9Z" style="fill: #4c78a8;"></path><path d="M301,199.9777777777778h9v0.022222222222211485h-9Z" style="fill: #4c78a8;"></path><path d="M221.00000000000003,199.9777777777778h8.999999999999943v0.022222222222211485h-8.999999999999943Z" style="fill: #4c78a8;"></path><path d="M261,199.9777777777778h9v0.022222222222211485h-9Z" style="fill: #4c78a8;"></path><path d="M281,199.9777777777778h9v0.022222222222211485h-9Z" style="fill: #4c78a8;"></path><path d="M361,199.9777777777778h9v0.022222222222211485h-9Z" style="fill: #4c78a8;"></path></g><g class="mark-group role-axis"><g transform="translate(0.5,200.5)"><path class="background" d="M0,0h0v0h0Z" style="pointer-events: none; fill: none;"></path><g><g class="mark-rule role-axis-tick" style="pointer-events: none;"><line transform="translate(0,0)" x2="0" y2="5" style="fill: none; stroke: #888; stroke-width: 1; opacity: 1;"></line><line transform="translate(10,0)" x2="0" y2="5" style="fill: none; stroke: #888; stroke-width: 1; opacity: 1;"></line><line transform="translate(20,0)" x2="0" y2="5" style="fill: none; stroke: #888; stroke-width: 1; opacity: 1;"></line><line transform="translate(30,0)" x2="0" y2="5" style="fill: none; stroke: #888; stroke-width: 1; opacity: 1;"></line><line transform="translate(40,0)" x2="0" y2="5" style="fill: none; stroke: #888; stroke-width: 1; opacity: 1;"></line><line transform="translate(50,0)" x2="0" y2="5" style="fill: none; stroke: #888; stroke-width: 1; opacity: 1;"></line><line transform="translate(60,0)" x2="0" y2="5" style="fill: none; stroke: #888; stroke-width: 1; opacity: 1;"></line><line transform="translate(70,0)" x2="0" y2="5" style="fill: none; stroke: #888; stroke-width: 1; opacity: 1;"></line><line transform="translate(80,0)" x2="0" y2="5" style="fill: none; stroke: #888; stroke-width: 1; opacity: 1;"></line><line transform="translate(90,0)" x2="0" y2="5" style="fill: none; stroke: #888; stroke-width: 1; opacity: 1;"></line><line transform="translate(100,0)" x2="0" y2="5" style="fill: none; stroke: #888; stroke-width: 1; opacity: 1;"></line><line transform="translate(110,0)" x2="0" y2="5" style="fill: none; stroke: #888; stroke-width: 1; opacity: 1;"></line><line transform="translate(120,0)" x2="0" y2="5" style="fill: none; stroke: #888; stroke-width: 1; opacity: 1;"></line><line transform="translate(130,0)" x2="0" y2="5" style="fill: none; stroke: #888; stroke-width: 1; opacity: 1;"></line><line transform="translate(140,0)" x2="0" y2="5" style="fill: none; stroke: #888; stroke-width: 1; opacity: 1;"></line><line transform="translate(150,0)" x2="0" y2="5" style="fill: none; stroke: #888; stroke-width: 1; opacity: 1;"></line><line transform="translate(160,0)" x2="0" y2="5" style="fill: none; stroke: #888; stroke-width: 1; opacity: 1;"></line><line transform="translate(170,0)" x2="0" y2="5" style="fill: none; stroke: #888; stroke-width: 1; opacity: 1;"></line><line transform="translate(180,0)" x2="0" y2="5" style="fill: none; stroke: #888; stroke-width: 1; opacity: 1;"></line><line transform="translate(190,0)" x2="0" y2="5" style="fill: none; stroke: #888; stroke-width: 1; opacity: 1;"></line><line transform="translate(200,0)" x2="0" y2="5" style="fill: none; stroke: #888; stroke-width: 1; opacity: 1;"></line></g><g class="mark-text role-axis-label" style="pointer-events: none;"><text text-anchor="start" transform="translate(0,15)" style="font-family: sans-serif; font-size: 10px; fill: #000; opacity: 1;">0</text><text text-anchor="middle" transform="translate(10,15)" style="font-family: sans-serif; font-size: 10px; fill: #000; opacity: 0;">100,000</text><text text-anchor="middle" transform="translate(20,15)" style="font-family: sans-serif; font-size: 10px; fill: #000; opacity: 0;">200,000</text><text text-anchor="middle" transform="translate(30,15)" style="font-family: sans-serif; font-size: 10px; fill: #000; opacity: 0;">300,000</text><text text-anchor="middle" transform="translate(40,15)" style="font-family: sans-serif; font-size: 10px; fill: #000; opacity: 0;">400,000</text><text text-anchor="middle" transform="translate(50,15)" style="font-family: sans-serif; font-size: 10px; fill: #000; opacity: 0;">500,000</text><text text-anchor="middle" transform="translate(60,15)" style="font-family: sans-serif; font-size: 10px; fill: #000; opacity: 0;">600,000</text><text text-anchor="middle" transform="translate(70,15)" style="font-family: sans-serif; font-size: 10px; fill: #000; opacity: 0;">700,000</text><text text-anchor="middle" transform="translate(80,15)" style="font-family: sans-serif; font-size: 10px; fill: #000; opacity: 1;">800,000</text><text text-anchor="middle" transform="translate(90,15)" style="font-family: sans-serif; font-size: 10px; fill: #000; opacity: 0;">900,000</text><text text-anchor="middle" transform="translate(100,15)" style="font-family: sans-serif; font-size: 10px; fill: #000; opacity: 0;">1,000,000</text><text text-anchor="middle" transform="translate(110.00000000000001,15)" style="font-family: sans-serif; font-size: 10px; fill: #000; opacity: 0;">1,100,000</text><text text-anchor="middle" transform="translate(120,15)" style="font-family: sans-serif; font-size: 10px; fill: #000; opacity: 0;">1,200,000</text><text text-anchor="middle" transform="translate(130,15)" style="font-family: sans-serif; font-size: 10px; fill: #000; opacity: 0;">1,300,000</text><text text-anchor="middle" transform="translate(140,15)" style="font-family: sans-serif; font-size: 10px; fill: #000; opacity: 0;">1,400,000</text><text text-anchor="middle" transform="translate(150,15)" style="font-family: sans-serif; font-size: 10px; fill: #000; opacity: 0;">1,500,000</text><text text-anchor="middle" transform="translate(160,15)" style="font-family: sans-serif; font-size: 10px; fill: #000; opacity: 1;">1,600,000</text><text text-anchor="middle" transform="translate(170,15)" style="font-family: sans-serif; font-size: 10px; fill: #000; opacity: 0;">1,700,000</text><text text-anchor="middle" transform="translate(180,15)" style="font-family: sans-serif; font-size: 10px; fill: #000; opacity: 0;">1,800,000</text><text text-anchor="middle" transform="translate(190,15)" style="font-family: sans-serif; font-size: 10px; fill: #000; opacity: 0;">1,900,000</text><text text-anchor="end" transform="translate(200,15)" style="font-family: sans-serif; font-size: 10px; fill: #000; opacity: 0;">2,000,000</text></g><g class="mark-rule role-axis-domain" style="pointer-events: none;"><line transform="translate(0,0)" x2="200" y2="0" style="fill: none; stroke: #888; stroke-width: 1; opacity: 1;"></line></g><g class="mark-text role-axis-title" style="pointer-events: none;"><text text-anchor="middle" transform="translate(100,30)" style="font-family: sans-serif; font-size: 11px; font-weight: bold; fill: #000; opacity: 1;">Assessment Value($)</text></g></g></g></g><g class="mark-group role-axis"><g transform="translate(0.5,0.5)"><path class="background" d="M0,0h0v0h0Z" style="pointer-events: none; fill: none;"></path><g><g class="mark-rule role-axis-tick" style="pointer-events: none;"><line transform="translate(0,200)" x2="-5" y2="0" style="fill: none; stroke: #888; stroke-width: 1; opacity: 1;"></line><line transform="translate(0,156)" x2="-5" y2="0" style="fill: none; stroke: #888; stroke-width: 1; opacity: 1;"></line><line transform="translate(0,111)" x2="-5" y2="0" style="fill: none; stroke: #888; stroke-width: 1; opacity: 1;"></line><line transform="translate(0,67)" x2="-5" y2="0" style="fill: none; stroke: #888; stroke-width: 1; opacity: 1;"></line><line transform="translate(0,22)" x2="-5" y2="0" style="fill: none; stroke: #888; stroke-width: 1; opacity: 1;"></line></g><g class="mark-text role-axis-label" style="pointer-events: none;"><text text-anchor="end" transform="translate(-7,203)" style="font-family: sans-serif; font-size: 10px; fill: #000; opacity: 1;">0</text><text text-anchor="end" transform="translate(-7,158.55555555555554)" style="font-family: sans-serif; font-size: 10px; fill: #000; opacity: 1;">2,000</text><text text-anchor="end" transform="translate(-7,114.11111111111111)" style="font-family: sans-serif; font-size: 10px; fill: #000; opacity: 1;">4,000</text><text text-anchor="end" transform="translate(-7,69.66666666666669)" style="font-family: sans-serif; font-size: 10px; fill: #000; opacity: 1;">6,000</text><text text-anchor="end" transform="translate(-7,25.22222222222223)" style="font-family: sans-serif; font-size: 10px; fill: #000; opacity: 1;">8,000</text></g><g class="mark-rule role-axis-domain" style="pointer-events: none;"><line transform="translate(0,200)" x2="0" y2="-200" style="fill: none; stroke: #888; stroke-width: 1; opacity: 1;"></line></g><g class="mark-text role-axis-title" style="pointer-events: none;"><text text-anchor="middle" transform="translate(-51,100) rotate(-90) translate(0,-2)" style="font-family: sans-serif; font-size: 11px; font-weight: bold; fill: #000; opacity: 1;">Count of Records</text></g></g></g></g></g></g></g></g></svg>