<svg class="marks" width="1246" height="352" viewBox="0 0 1246 352" version="1.1" xmlns="http://www.w3.org/2000/svg" xmlns:xlink="http://www.w3.org/1999/xlink"><rect width="1246" height="352" style="fill: white;"></rect><g transform="translate(99,10)"><g class="mark-group role-frame root"><g transform="translate(0,0)"><path class="background" d="M0,0h0v0h0Z" style="fill: none;"></path><g><g class="mark-group role-scope concat_0_group"><g transform="translate(0,0)"><path class="background" d="M0,0h0v0h0Z" style="fill: none;"></path><g><g class="mark-group role-column-title column-title"><g transform="translate(100,316)"><path class="background" d="M0,0h0v0h0Z" style="fill: none;"></path><g><g class="mark-text role-title" style="pointer-events: none;"><text text-anchor="middle" transform="translate(0,19)" style="font-family: sans-serif; font-size: 11px; font-weight: bold; fill: #000; opacity: 1;">GARAGE</text></g></g></g></g><g class="mark-group role-row-header concat_0_row_header"><g transform="translate(0,0)"><path class="background" d="M0,0h0v300h0Z" style="fill: none;"></path><g><g class="mark-group role-axis"><g transform="translate(0.5,0.5)"><path class="background" d="M0,0h0v0h0Z" style="pointer-events: none; fill: none;"></path><g><g class="mark-rule role-axis-tick" style="pointer-events: none;"><line transform="translate(0,300)" x2="-5" y2="0" style="fill: none; stroke: #888; stroke-width: 1; opacity: 1;"></line><line transform="translate(0,263)" x2="-5" y2="0" style="fill: none; stroke: #888; stroke-width: 1; opacity: 1;"></line><line transform="translate(0,225)" x2="-5" y2="0" style="fill: none; stroke: #888; stroke-width: 1; opacity: 1;"></line><line transform="translate(0,188)" x2="-5" y2="0" style="fill: none; stroke: #888; stroke-width: 1; opacity: 1;"></line><line transform="translate(0,150)" x2="-5" y2="0" style="fill: none; stroke: #888; stroke-width: 1; opacity: 1;"></line><line transform="translate(0,113)" x2="-5" y2="0" style="fill: none; stroke: #888; stroke-width: 1; opacity: 1;"></line><line transform="translate(0,75)" x2="-5" y2="0" style="fill: none; stroke: #888; stroke-width: 1; opacity: 1;"></line><line transform="translate(0,38)" x2="-5" y2="0" style="fill: none; stroke: #888; stroke-width: 1; opacity: 1;"></line><line transform="translate(0,0)" x2="-5" y2="0" style="fill: none; stroke: #888; stroke-width: 1; opacity: 1;"></line></g><g class="mark-text role-axis-label" style="pointer-events: none;"><text text-anchor="end" transform="translate(-7,303)" style="font-family: sans-serif; font-size: 10px; fill: #000; opacity: 1;">0</text><text text-anchor="end" transform="translate(-7,265.5)" style="font-family: sans-serif; font-size: 10px; fill: #000; opacity: 1;">200,000</text><text text-anchor="end" transform="translate(-7,228)" style="font-family: sans-serif; font-size: 10px; fill: #000; opacity: 1;">400,000</text><text text-anchor="end" transform="translate(-7,190.5)" style="font-family: sans-serif; font-size: 10px; fill: #000; opacity: 1;">600,000</text><text text-anchor="end" transform="translate(-7,153)" style="font-family: sans-serif; font-size: 10px; fill: #000; opacity: 1;">800,000</text><text text-anchor="end" transform="translate(-7,115.5)" style="font-family: sans-serif; font-size: 10px; fill: #000; opacity: 1;">1,000,000</text><text text-anchor="end" transform="translate(-7,78)" style="font-family: sans-serif; font-size: 10px; fill: #000; opacity: 1;">1,200,000</text><text text-anchor="end" transform="translate(-7,40.5)" style="font-family: sans-serif; font-size: 10px; fill: #000; opacity: 1;">1,400,000</text><text text-anchor="end" transform="translate(-7,3)" style="font-family: sans-serif; font-size: 10px; fill: #000; opacity: 1;">1,600,000</text></g><g class="mark-rule role-axis-domain" style="pointer-events: none;"><line transform="translate(0,300)" x2="0" y2="-300" style="fill: none; stroke: #888; stroke-width: 1; opacity: 1;"></line></g><g class="mark-text role-axis-title" style="pointer-events: none;"><text text-anchor="middle" transform="translate(-83,150) rotate(-90) translate(0,-2)" style="font-family: sans-serif; font-size: 11px; font-weight: bold; fill: #000; opacity: 1;">ASSESSMENT</text></g></g></g></g></g></g></g><g class="mark-group role-column-header concat_0_column_header"><g transform="translate(0,0)"><path class="background" d="M0,0h100v0h-100Z" style="fill: none;"></path><g><g class="mark-text role-title" style="pointer-events: none;"><text text-anchor="middle" transform="translate(50,8)" style="font-family: sans-serif; font-size: 10px; fill: #000; opacity: 1;">N</text></g></g></g><g transform="translate(100,0)"><path class="background" d="M0,0h100v0h-100Z" style="fill: none;"></path><g><g class="mark-text role-title" style="pointer-events: none;"><text text-anchor="middle" transform="translate(50,8)" style="font-family: sans-serif; font-size: 10px; fill: #000; opacity: 1;">Y</text></g></g></g></g><g class="mark-group role-column-footer concat_0_column_footer"><g transform="translate(0,300)"><path class="background" d="M0,0h100v0h-100Z" style="fill: none;"></path><g><g class="mark-group role-axis"><g transform="translate(0.5,0.5)"><path class="background" d="M0,0h0v0h0Z" style="pointer-events: none; fill: none;"></path><g><g class="mark-rule role-axis-tick" style="pointer-events: none;"><line transform="translate(0,0)" x2="0" y2="5" style="fill: none; stroke: #888; stroke-width: 1; opacity: 1;"></line></g><g class="mark-rule role-axis-domain" style="pointer-events: none;"><line transform="translate(0,0)" x2="100" y2="0" style="fill: none; stroke: #888; stroke-width: 1; opacity: 1;"></line></g></g></g></g></g></g><g transform="translate(100,300)"><path class="background" d="M0,0h100v0h-100Z" style="fill: none;"></path><g><g class="mark-group role-axis"><g transform="translate(0.5,0.5)"><path class="background" d="M0,0h0v0h0Z" style="pointer-events: none; fill: none;"></path><g><g class="mark-rule role-axis-tick" style="pointer-events: none;"><line transform="translate(0,0)" x2="0" y2="5" style="fill: none; stroke: #888; stroke-width: 1; opacity: 1;"></line></g><g class="mark-rule role-axis-domain" style="pointer-events: none;"><line transform="translate(0,0)" x2="100" y2="0" style="fill: none; stroke: #888; stroke-width: 1; opacity: 1;"></line></g></g></g></g></g></g></g><g class="mark-group role-scope concat_0_cell"><g transform="translate(0,0)"><path class="background" d="M0,0h100v300h-100Z" style="fill: none;"></path><g><g class="mark-group role-axis"><g transform="translate(0.5,0.5)"><path class="background" d="M0,0h0v0h0Z" style="pointer-events: none; fill: none;"></path><g><g class="mark-rule role-axis-grid" style="pointer-events: none;"><line transform="translate(0,300)" x2="100" y2="0" style="fill: none; stroke: #ddd; stroke-width: 1; opacity: 1;"></line><line transform="translate(0,263)" x2="100" y2="0" style="fill: none; stroke: #ddd; stroke-width: 1; opacity: 1;"></line><line transform="translate(0,225)" x2="100" y2="0" style="fill: none; stroke: #ddd; stroke-width: 1; opacity: 1;"></line><line transform="translate(0,188)" x2="100" y2="0" style="fill: none; stroke: #ddd; stroke-width: 1; opacity: 1;"></line><line transform="translate(0,150)" x2="100" y2="0" style="fill: none; stroke: #ddd; stroke-width: 1; opacity: 1;"></line><line transform="translate(0,113)" x2="100" y2="0" style="fill: none; stroke: #ddd; stroke-width: 1; opacity: 1;"></line><line transform="translate(0,75)" x2="100" y2="0" style="fill: none; stroke: #ddd; stroke-width: 1; opacity: 1;"></line><line transform="translate(0,38)" x2="100" y2="0" style="fill: none; stroke: #ddd; stroke-width: 1; opacity: 1;"></line><line transform="translate(0,0)" x2="100" y2="0" style="fill: none; stroke: #ddd; stroke-width: 1; opacity: 1;"></line></g></g></g></g><g class="mark-group role-scope concat_0_child_pathgroup"><g transform="translate(0,0)"><path class="background" d="M0,0h100v300h-100Z" style="fill: none;"></path><g><g class="mark-area role-mark concat_0_child_marks"><path d="M47.554255224633756,300L47.56676042381823,288L48.89542573758636,276L50.98853294423803,264L56.51330453215018,252L95.10005541134585,240L70.11931918577025,228L51.89506318655206,216L49.58384889742516,204L48.87833661001248,192L48.121306770614126,180L48.106754306521495,168L48.070521126253254,156L47.81287879944247,144L47.553768678163806,131.99999999999997L47.55743022329489,120L47.550027705672925,108L47.550027705672925,95.99999999999997L47.550027705672925,84L47.550027705672925,72L47.5500296377277,60L47.62227624546617,48L47.55002770567398,36L47.550027705672925,24L47.550027705672925,12L47.550027705672925,0L47.550027705672925,0L47.550027705672925,12L47.550027705672925,24L47.55002770567185,36L47.47777916587969,48L47.55002577361815,60L47.550027705672925,72L47.550027705672925,84L47.550027705672925,95.99999999999997L47.550027705672925,108L47.542625188050955,120L47.54628673318205,131.99999999999997L47.287176611903384,144L47.029534285092595,156L46.99330110482436,168L46.97874864073172,180L46.22171880133336,192L45.51620651392068,204L43.20499222479379,216L24.98073622557559,228L0,240L38.58675087919568,252L44.111522467107825,264L46.2046296737595,276L47.533294987527626,288L47.54580018671209,300Z" style="fill: #4c78a8;"></path></g></g></g></g></g></g><g transform="translate(100,0)"><path class="background" d="M0,0h100v300h-100Z" style="fill: none;"></path><g><g class="mark-group role-axis"><g transform="translate(0.5,0.5)"><path class="background" d="M0,0h0v0h0Z" style="pointer-events: none; fill: none;"></path><g><g class="mark-rule role-axis-grid" style="pointer-events: none;"><line transform="translate(0,300)" x2="100" y2="0" style="fill: none; stroke: #ddd; stroke-width: 1; opacity: 1;"></line><line transform="translate(0,263)" x2="100" y2="0" style="fill: none; stroke: #ddd; stroke-width: 1; opacity: 1;"></line><line transform="translate(0,225)" x2="100" y2="0" style="fill: none; stroke: #ddd; stroke-width: 1; opacity: 1;"></line><line transform="translate(0,188)" x2="100" y2="0" style="fill: none; stroke: #ddd; stroke-width: 1; opacity: 1;"></line><line transform="translate(0,150)" x2="100" y2="0" style="fill: none; stroke: #ddd; stroke-width: 1; opacity: 1;"></line><line transform="translate(0,113)" x2="100" y2="0" style="fill: none; stroke: #ddd; stroke-width: 1; opacity: 1;"></line><line transform="translate(0,75)" x2="100" y2="0" style="fill: none; stroke: #ddd; stroke-width: 1; opacity: 1;"></line><line transform="translate(0,38)" x2="100" y2="0" style="fill: none; stroke: #ddd; stroke-width: 1; opacity: 1;"></line><line transform="translate(0,0)" x2="100" y2="0" style="fill: none; stroke: #ddd; stroke-width: 1; opacity: 1;"></line></g></g></g></g><g class="mark-group role-scope concat_0_child_pathgroup"><g transform="translate(0,0)"><path class="background" d="M0,0h100v300h-100Z" style="fill: none;"></path><g><g class="mark-area role-mark concat_0_child_marks"><path d="M47.55054604659081,300L47.55199379115553,288L47.63172799438478,276L47.92827477075429,264L48.32738734573249,252L56.5534201876758,240L71.9525092914994,228L68.37500989325521,216L64.4384653822293,204L56.44050630707875,192L52.29022387584352,180L50.65793210130383,168L49.58045109415913,156L49.12656907301602,144L48.84589213340876,131.99999999999997L48.4615581494516,120L48.31972938440509,108L48.16474480360105,95.99999999999997L47.998780190516776,84L47.846005656736544,72L47.78309600360359,60L47.745019939429575,48L47.69420148022802,36L47.64412338759813,24L47.59836303512231,12L47.605678715742954,0L47.494376695602895,0L47.50169237622353,12L47.45593202374772,24L47.405853931117825,36L47.35503547191628,48L47.31695940774227,60L47.254049754609305,72L47.10127522082907,84L46.93531060774481,95.99999999999997L46.78032602694076,108L46.638497261894265,120L46.25416327793709,131.99999999999997L45.97348633832982,144L45.519604317186705,156L44.44212331004202,168L42.80983153550233,180L38.659549104267086,192L30.66159002911656,204L26.72504551809064,216L23.14754611984644,228L38.54663522367005,240L46.77266806561337,252L47.17178064059155,264L47.46832741696107,276L47.54806162019031,288L47.54950936475504,300Z" style="fill: #f58518;"></path></g></g></g></g></g></g></g></g></g></g><g class="mark-group role-scope concat_1_group"><g transform="translate(314,0)"><path class="background" d="M0,0h0v0h0Z" style="fill: none;"></path><g><g class="mark-group role-column-title column-title"><g transform="translate(100,316)"><path class="background" d="M0,0h0v0h0Z" style="fill: none;"></path><g><g class="mark-text role-title" style="pointer-events: none;"><text text-anchor="middle" transform="translate(0,19)" style="font-family: sans-serif; font-size: 11px; font-weight: bold; fill: #000; opacity: 1;">FIREPLACE</text></g></g></g></g><g class="mark-group role-row-header concat_1_row_header"><g transform="translate(0,0)"><path class="background" d="M0,0h0v300h0Z" style="fill: none;"></path><g><g class="mark-group role-axis"><g transform="translate(0.5,0.5)"><path class="background" d="M0,0h0v0h0Z" style="pointer-events: none; fill: none;"></path><g><g class="mark-rule role-axis-tick" style="pointer-events: none;"><line transform="translate(0,300)" x2="-5" y2="0" style="fill: none; stroke: #888; stroke-width: 1; opacity: 1;"></line><line transform="translate(0,263)" x2="-5" y2="0" style="fill: none; stroke: #888; stroke-width: 1; opacity: 1;"></line><line transform="translate(0,225)" x2="-5" y2="0" style="fill: none; stroke: #888; stroke-width: 1; opacity: 1;"></line><line transform="translate(0,188)" x2="-5" y2="0" style="fill: none; stroke: #888; stroke-width: 1; opacity: 1;"></line><line transform="translate(0,150)" x2="-5" y2="0" style="fill: none; stroke: #888; stroke-width: 1; opacity: 1;"></line><line transform="translate(0,113)" x2="-5" y2="0" style="fill: none; stroke: #888; stroke-width: 1; opacity: 1;"></line><line transform="translate(0,75)" x2="-5" y2="0" style="fill: none; stroke: #888; stroke-width: 1; opacity: 1;"></line><line transform="translate(0,38)" x2="-5" y2="0" style="fill: none; stroke: #888; stroke-width: 1; opacity: 1;"></line><line transform="translate(0,0)" x2="-5" y2="0" style="fill: none; stroke: #888; stroke-width: 1; opacity: 1;"></line></g><g class="mark-text role-axis-label" style="pointer-events: none;"><text text-anchor="end" transform="translate(-7,303)" style="font-family: sans-serif; font-size: 10px; fill: #000; opacity: 1;">0</text><text text-anchor="end" transform="translate(-7,265.5)" style="font-family: sans-serif; font-size: 10px; fill: #000; opacity: 1;">200,000</text><text text-anchor="end" transform="translate(-7,228)" style="font-family: sans-serif; font-size: 10px; fill: #000; opacity: 1;">400,000</text><text text-anchor="end" transform="translate(-7,190.5)" style="font-family: sans-serif; font-size: 10px; fill: #000; opacity: 1;">600,000</text><text text-anchor="end" transform="translate(-7,153)" style="font-family: sans-serif; font-size: 10px; fill: #000; opacity: 1;">800,000</text><text text-anchor="end" transform="translate(-7,115.5)" style="font-family: sans-serif; font-size: 10px; fill: #000; opacity: 1;">1,000,000</text><text text-anchor="end" transform="translate(-7,78)" style="font-family: sans-serif; font-size: 10px; fill: #000; opacity: 1;">1,200,000</text><text text-anchor="end" transform="translate(-7,40.5)" style="font-family: sans-serif; font-size: 10px; fill: #000; opacity: 1;">1,400,000</text><text text-anchor="end" transform="translate(-7,3)" style="font-family: sans-serif; font-size: 10px; fill: #000; opacity: 1;">1,600,000</text></g><g class="mark-rule role-axis-domain" style="pointer-events: none;"><line transform="translate(0,300)" x2="0" y2="-300" style="fill: none; stroke: #888; stroke-width: 1; opacity: 1;"></line></g><g class="mark-text role-axis-title" style="pointer-events: none;"><text text-anchor="middle" transform="translate(-83,150) rotate(-90) translate(0,-2)" style="font-family: sans-serif; font-size: 11px; font-weight: bold; fill: #000; opacity: 1;">ASSESSMENT</text></g></g></g></g></g></g></g><g class="mark-group role-column-header concat_1_column_header"><g transform="translate(0,0)"><path class="background" d="M0,0h100v0h-100Z" style="fill: none;"></path><g><g class="mark-text role-title" style="pointer-events: none;"><text text-anchor="middle" transform="translate(50,8)" style="font-family: sans-serif; font-size: 10px; fill: #000; opacity: 1;">N</text></g></g></g><g transform="translate(100,0)"><path class="background" d="M0,0h100v0h-100Z" style="fill: none;"></path><g><g class="mark-text role-title" style="pointer-events: none;"><text text-anchor="middle" transform="translate(50,8)" style="font-family: sans-serif; font-size: 10px; fill: #000; opacity: 1;">Y</text></g></g></g></g><g class="mark-group role-column-footer concat_1_column_footer"><g transform="translate(0,300)"><path class="background" d="M0,0h100v0h-100Z" style="fill: none;"></path><g><g class="mark-group role-axis"><g transform="translate(0.5,0.5)"><path class="background" d="M0,0h0v0h0Z" style="pointer-events: none; fill: none;"></path><g><g class="mark-rule role-axis-tick" style="pointer-events: none;"><line transform="translate(0,0)" x2="0" y2="5" style="fill: none; stroke: #888; stroke-width: 1; opacity: 1;"></line></g><g class="mark-rule role-axis-domain" style="pointer-events: none;"><line transform="translate(0,0)" x2="100" y2="0" style="fill: none; stroke: #888; stroke-width: 1; opacity: 1;"></line></g></g></g></g></g></g><g transform="translate(100,300)"><path class="background" d="M0,0h100v0h-100Z" style="fill: none;"></path><g><g class="mark-group role-axis"><g transform="translate(0.5,0.5)"><path class="background" d="M0,0h0v0h0Z" style="pointer-events: none; fill: none;"></path><g><g class="mark-rule role-axis-tick" style="pointer-events: none;"><line transform="translate(0,0)" x2="0" y2="5" style="fill: none; stroke: #888; stroke-width: 1; opacity: 1;"></line></g><g class="mark-rule role-axis-domain" style="pointer-events: none;"><line transform="translate(0,0)" x2="100" y2="0" style="fill: none; stroke: #888; stroke-width: 1; opacity: 1;"></line></g></g></g></g></g></g></g><g class="mark-group role-scope concat_1_cell"><g transform="translate(0,0)"><path class="background" d="M0,0h100v300h-100Z" style="fill: none;"></path><g><g class="mark-group role-axis"><g transform="translate(0.5,0.5)"><path class="background" d="M0,0h0v0h0Z" style="pointer-events: none; fill: none;"></path><g><g class="mark-rule role-axis-grid" style="pointer-events: none;"><line transform="translate(0,300)" x2="100" y2="0" style="fill: none; stroke: #ddd; stroke-width: 1; opacity: 1;"></line><line transform="translate(0,263)" x2="100" y2="0" style="fill: none; stroke: #ddd; stroke-width: 1; opacity: 1;"></line><line transform="translate(0,225)" x2="100" y2="0" style="fill: none; stroke: #ddd; stroke-width: 1; opacity: 1;"></line><line transform="translate(0,188)" x2="100" y2="0" style="fill: none; stroke: #ddd; stroke-width: 1; opacity: 1;"></line><line transform="translate(0,150)" x2="100" y2="0" style="fill: none; stroke: #ddd; stroke-width: 1; opacity: 1;"></line><line transform="translate(0,113)" x2="100" y2="0" style="fill: none; stroke: #ddd; stroke-width: 1; opacity: 1;"></line><line transform="translate(0,75)" x2="100" y2="0" style="fill: none; stroke: #ddd; stroke-width: 1; opacity: 1;"></line><line transform="translate(0,38)" x2="100" y2="0" style="fill: none; stroke: #ddd; stroke-width: 1; opacity: 1;"></line><line transform="translate(0,0)" x2="100" y2="0" style="fill: none; stroke: #ddd; stroke-width: 1; opacity: 1;"></line></g></g></g></g><g class="mark-group role-scope concat_1_child_pathgroup"><g transform="translate(0,0)"><path class="background" d="M0,0h100v300h-100Z" style="fill: none;"></path><g><g class="mark-area role-mark concat_1_child_marks"><path d="M47.92041576954528,300L47.92440847765289,288L48.67703369096947,276L49.79008540339559,264L53.21093751489978,252L95.83838261697927,240L92.58665593571986,228L59.9046397246248,216L54.29505285399968,204L50.808486909137166,192L49.68675607708169,180L48.53439037494669,168L48.62718052630423,156L48.273436769961556,144L48.20590547404301,131.99999999999997L48.02221842341058,120L47.928310207681506,108L48.00599183820692,95.99999999999997L47.92565008530508,84L47.989406121629266,72L47.92241716048652,60L47.94983591453402,48L47.91919130848966,36L47.91919130848964,24L47.91919130848964,12L47.91919130848964,0L47.91919130848964,0L47.91919130848964,12L47.91919130848964,24L47.91919130848963,36L47.88854670244527,48L47.915965456492756,60L47.84897649535002,72L47.9127325316742,84L47.83239077877236,95.99999999999997L47.910072409297776,108L47.8161641935687,120L47.63247714293627,131.99999999999997L47.564945847017725,144L47.211202090675044,156L47.3039922420326,168L46.1516265398976,180L45.02989570784213,192L41.54332976297959,204L35.93374289235447,216L3.251726681259413,228L0,240L42.62744510207949,252L46.0482972135837,264L47.16134892600981,276L47.913974139326385,288L47.91796684743401,300Z" style="fill: #4c78a8;"></path></g></g></g></g></g></g><g transform="translate(100,0)"><path class="background" d="M0,0h100v300h-100Z" style="fill: none;"></path><g><g class="mark-group role-axis"><g transform="translate(0.5,0.5)"><path class="background" d="M0,0h0v0h0Z" style="pointer-events: none; fill: none;"></path><g><g class="mark-rule role-axis-grid" style="pointer-events: none;"><line transform="translate(0,300)" x2="100" y2="0" style="fill: none; stroke: #ddd; stroke-width: 1; opacity: 1;"></line><line transform="translate(0,263)" x2="100" y2="0" style="fill: none; stroke: #ddd; stroke-width: 1; opacity: 1;"></line><line transform="translate(0,225)" x2="100" y2="0" style="fill: none; stroke: #ddd; stroke-width: 1; opacity: 1;"></line><line transform="translate(0,188)" x2="100" y2="0" style="fill: none; stroke: #ddd; stroke-width: 1; opacity: 1;"></line><line transform="translate(0,150)" x2="100" y2="0" style="fill: none; stroke: #ddd; stroke-width: 1; opacity: 1;"></line><line transform="translate(0,113)" x2="100" y2="0" style="fill: none; stroke: #ddd; stroke-width: 1; opacity: 1;"></line><line transform="translate(0,75)" x2="100" y2="0" style="fill: none; stroke: #ddd; stroke-width: 1; opacity: 1;"></line><line transform="translate(0,38)" x2="100" y2="0" style="fill: none; stroke: #ddd; stroke-width: 1; opacity: 1;"></line><line transform="translate(0,0)" x2="100" y2="0" style="fill: none; stroke: #ddd; stroke-width: 1; opacity: 1;"></line></g></g></g></g><g class="mark-group role-scope concat_1_child_pathgroup"><g transform="translate(0,0)"><path class="background" d="M0,0h100v300h-100Z" style="fill: none;"></path><g><g class="mark-area role-mark concat_1_child_marks"><path d="M47.91919132570687,300L47.923582440598466,288L48.01606992628912,276L48.41309349379518,264L48.71343474226369,252L55.746990592212065,240L77.43546267409762,228L77.41664079310783,216L72.55942660091124,204L61.035828994780026,192L54.871055629304045,180L52.56860760868797,168L50.93403177680186,156L50.28312135674786,144L49.85084443355042,131.99999999999997L49.300288885957755,120L49.09452376386372,108L48.840614278218176,95.99999999999997L48.601128247560005,84L48.36108760938252,72L48.27217972132326,60L48.216213901561474,48L48.139432379840116,36L48.0648794263353,24L47.99457302482508,12L48.00393039967025,0L47.83445221730903,0L47.843809592154194,12L47.77350319064397,24L47.69895023713916,36L47.62216871541781,48L47.566202895656026,60L47.47729500759677,72L47.23725436941928,84L46.99776833876111,95.99999999999997L46.74385885311556,108L46.538093731021526,120L45.98753818342887,131.99999999999997L45.555261260231404,144L44.904350840177415,156L43.26977500829132,168L40.96732698767524,180L34.80255362219926,192L23.278956016068037,204L18.421741823871457,216L18.40291994288166,228L40.09139202476722,240L47.12494787471559,252L47.4252891231841,264L47.82231269069017,276L47.91480017638082,288L47.91919129127241,300Z" style="fill: #f58518;"></path></g></g></g></g></g></g></g></g></g></g><g class="mark-group role-scope concat_2_group"><g transform="translate(628,0)"><path class="background" d="M0,0h0v0h0Z" style="fill: none;"></path><g><g class="mark-group role-column-title column-title"><g transform="translate(100,316)"><path class="background" d="M0,0h0v0h0Z" style="fill: none;"></path><g><g class="mark-text role-title" style="pointer-events: none;"><text text-anchor="middle" transform="translate(0,19)" style="font-family: sans-serif; font-size: 11px; font-weight: bold; fill: #000; opacity: 1;">BASEMENT</text></g></g></g></g><g class="mark-group role-row-header concat_2_row_header"><g transform="translate(0,0)"><path class="background" d="M0,0h0v300h0Z" style="fill: none;"></path><g><g class="mark-group role-axis"><g transform="translate(0.5,0.5)"><path class="background" d="M0,0h0v0h0Z" style="pointer-events: none; fill: none;"></path><g><g class="mark-rule role-axis-tick" style="pointer-events: none;"><line transform="translate(0,300)" x2="-5" y2="0" style="fill: none; stroke: #888; stroke-width: 1; opacity: 1;"></line><line transform="translate(0,263)" x2="-5" y2="0" style="fill: none; stroke: #888; stroke-width: 1; opacity: 1;"></line><line transform="translate(0,225)" x2="-5" y2="0" style="fill: none; stroke: #888; stroke-width: 1; opacity: 1;"></line><line transform="translate(0,188)" x2="-5" y2="0" style="fill: none; stroke: #888; stroke-width: 1; opacity: 1;"></line><line transform="translate(0,150)" x2="-5" y2="0" style="fill: none; stroke: #888; stroke-width: 1; opacity: 1;"></line><line transform="translate(0,113)" x2="-5" y2="0" style="fill: none; stroke: #888; stroke-width: 1; opacity: 1;"></line><line transform="translate(0,75)" x2="-5" y2="0" style="fill: none; stroke: #888; stroke-width: 1; opacity: 1;"></line><line transform="translate(0,38)" x2="-5" y2="0" style="fill: none; stroke: #888; stroke-width: 1; opacity: 1;"></line><line transform="translate(0,0)" x2="-5" y2="0" style="fill: none; stroke: #888; stroke-width: 1; opacity: 1;"></line></g><g class="mark-text role-axis-label" style="pointer-events: none;"><text text-anchor="end" transform="translate(-7,303)" style="font-family: sans-serif; font-size: 10px; fill: #000; opacity: 1;">0</text><text text-anchor="end" transform="translate(-7,265.5)" style="font-family: sans-serif; font-size: 10px; fill: #000; opacity: 1;">200,000</text><text text-anchor="end" transform="translate(-7,228)" style="font-family: sans-serif; font-size: 10px; fill: #000; opacity: 1;">400,000</text><text text-anchor="end" transform="translate(-7,190.5)" style="font-family: sans-serif; font-size: 10px; fill: #000; opacity: 1;">600,000</text><text text-anchor="end" transform="translate(-7,153)" style="font-family: sans-serif; font-size: 10px; fill: #000; opacity: 1;">800,000</text><text text-anchor="end" transform="translate(-7,115.5)" style="font-family: sans-serif; font-size: 10px; fill: #000; opacity: 1;">1,000,000</text><text text-anchor="end" transform="translate(-7,78)" style="font-family: sans-serif; font-size: 10px; fill: #000; opacity: 1;">1,200,000</text><text text-anchor="end" transform="translate(-7,40.5)" style="font-family: sans-serif; font-size: 10px; fill: #000; opacity: 1;">1,400,000</text><text text-anchor="end" transform="translate(-7,3)" style="font-family: sans-serif; font-size: 10px; fill: #000; opacity: 1;">1,600,000</text></g><g class="mark-rule role-axis-domain" style="pointer-events: none;"><line transform="translate(0,300)" x2="0" y2="-300" style="fill: none; stroke: #888; stroke-width: 1; opacity: 1;"></line></g><g class="mark-text role-axis-title" style="pointer-events: none;"><text text-anchor="middle" transform="translate(-83,150) rotate(-90) translate(0,-2)" style="font-family: sans-serif; font-size: 11px; font-weight: bold; fill: #000; opacity: 1;">ASSESSMENT</text></g></g></g></g></g></g></g><g class="mark-group role-column-header concat_2_column_header"><g transform="translate(0,0)"><path class="background" d="M0,0h100v0h-100Z" style="fill: none;"></path><g><g class="mark-text role-title" style="pointer-events: none;"><text text-anchor="middle" transform="translate(50,8)" style="font-family: sans-serif; font-size: 10px; fill: #000; opacity: 1;">N</text></g></g></g><g transform="translate(100,0)"><path class="background" d="M0,0h100v0h-100Z" style="fill: none;"></path><g><g class="mark-text role-title" style="pointer-events: none;"><text text-anchor="middle" transform="translate(50,8)" style="font-family: sans-serif; font-size: 10px; fill: #000; opacity: 1;">Y</text></g></g></g></g><g class="mark-group role-column-footer concat_2_column_footer"><g transform="translate(0,300)"><path class="background" d="M0,0h100v0h-100Z" style="fill: none;"></path><g><g class="mark-group role-axis"><g transform="translate(0.5,0.5)"><path class="background" d="M0,0h0v0h0Z" style="pointer-events: none; fill: none;"></path><g><g class="mark-rule role-axis-tick" style="pointer-events: none;"><line transform="translate(0,0)" x2="0" y2="5" style="fill: none; stroke: #888; stroke-width: 1; opacity: 1;"></line></g><g class="mark-rule role-axis-domain" style="pointer-events: none;"><line transform="translate(0,0)" x2="100" y2="0" style="fill: none; stroke: #888; stroke-width: 1; opacity: 1;"></line></g></g></g></g></g></g><g transform="translate(100,300)"><path class="background" d="M0,0h100v0h-100Z" style="fill: none;"></path><g><g class="mark-group role-axis"><g transform="translate(0.5,0.5)"><path class="background" d="M0,0h0v0h0Z" style="pointer-events: none; fill: none;"></path><g><g class="mark-rule role-axis-tick" style="pointer-events: none;"><line transform="translate(0,0)" x2="0" y2="5" style="fill: none; stroke: #888; stroke-width: 1; opacity: 1;"></line></g><g class="mark-rule role-axis-domain" style="pointer-events: none;"><line transform="translate(0,0)" x2="100" y2="0" style="fill: none; stroke: #888; stroke-width: 1; opacity: 1;"></line></g></g></g></g></g></g></g><g class="mark-group role-scope concat_2_cell"><g transform="translate(0,0)"><path class="background" d="M0,0h100v300h-100Z" style="fill: none;"></path><g><g class="mark-group role-axis"><g transform="translate(0.5,0.5)"><path class="background" d="M0,0h0v0h0Z" style="pointer-events: none; fill: none;"></path><g><g class="mark-rule role-axis-grid" style="pointer-events: none;"><line transform="translate(0,300)" x2="100" y2="0" style="fill: none; stroke: #ddd; stroke-width: 1; opacity: 1;"></line><line transform="translate(0,263)" x2="100" y2="0" style="fill: none; stroke: #ddd; stroke-width: 1; opacity: 1;"></line><line transform="translate(0,225)" x2="100" y2="0" style="fill: none; stroke: #ddd; stroke-width: 1; opacity: 1;"></line><line transform="translate(0,188)" x2="100" y2="0" style="fill: none; stroke: #ddd; stroke-width: 1; opacity: 1;"></line><line transform="translate(0,150)" x2="100" y2="0" style="fill: none; stroke: #ddd; stroke-width: 1; opacity: 1;"></line><line transform="translate(0,113)" x2="100" y2="0" style="fill: none; stroke: #ddd; stroke-width: 1; opacity: 1;"></line><line transform="translate(0,75)" x2="100" y2="0" style="fill: none; stroke: #ddd; stroke-width: 1; opacity: 1;"></line><line transform="translate(0,38)" x2="100" y2="0" style="fill: none; stroke: #ddd; stroke-width: 1; opacity: 1;"></line><line transform="translate(0,0)" x2="100" y2="0" style="fill: none; stroke: #ddd; stroke-width: 1; opacity: 1;"></line></g></g></g></g><g class="mark-group role-scope concat_2_child_pathgroup"><g transform="translate(0,0)"><path class="background" d="M0,0h100v300h-100Z" style="fill: none;"></path><g><g class="mark-area role-mark concat_2_child_marks"><path d="M49.54549764663921,300L50.915040597344365,288L58.514142641533084,276L68.6881676132056,264L75.12883058155813,252L84.38738596128306,240L83.98325959451014,228L73.29885235167166,216L66.3380977310968,204L60.660006535701974,192L55.25016326398129,180L52.966131931669544,168L51.79602491618625,156L50.76706161759213,144L49.902943958366485,131.99999999999997L49.37627550452706,120L49.27109136775104,108L49.18204796968162,95.99999999999997L49.17722697850113,84L49.17720781892434,72L49.17745627952259,60L49.19928960516719,48L49.342935944351694,36L49.39548366089579,24L49.27384107022613,12L49.182057801044344,0L49.17235738936168,0L49.08057412017989,12L48.95893152951023,24L49.01147924605434,36L49.15512558523883,48L49.176958910883435,60L49.177207371481686,72L49.17718821190491,84L49.1723672207244,95.99999999999997L49.08332382265499,108L48.97813968587897,120L48.45147123203955,131.99999999999997L47.58735357281391,144L46.558390274219775,156L45.388283258736486,168L43.104251926424745,180L37.694408654704056,192L32.01631745930924,204L25.055562838734375,216L14.371155595895885,228L13.967029229122971,240L23.225584608847896,252L29.66624757720045,264L39.84027254887294,276L47.439374593061665,288L48.808917543766825,300Z" style="fill: #4c78a8;"></path></g></g></g></g></g></g><g transform="translate(100,0)"><path class="background" d="M0,0h100v300h-100Z" style="fill: none;"></path><g><g class="mark-group role-axis"><g transform="translate(0.5,0.5)"><path class="background" d="M0,0h0v0h0Z" style="pointer-events: none; fill: none;"></path><g><g class="mark-rule role-axis-grid" style="pointer-events: none;"><line transform="translate(0,300)" x2="100" y2="0" style="fill: none; stroke: #ddd; stroke-width: 1; opacity: 1;"></line><line transform="translate(0,263)" x2="100" y2="0" style="fill: none; stroke: #ddd; stroke-width: 1; opacity: 1;"></line><line transform="translate(0,225)" x2="100" y2="0" style="fill: none; stroke: #ddd; stroke-width: 1; opacity: 1;"></line><line transform="translate(0,188)" x2="100" y2="0" style="fill: none; stroke: #ddd; stroke-width: 1; opacity: 1;"></line><line transform="translate(0,150)" x2="100" y2="0" style="fill: none; stroke: #ddd; stroke-width: 1; opacity: 1;"></line><line transform="translate(0,113)" x2="100" y2="0" style="fill: none; stroke: #ddd; stroke-width: 1; opacity: 1;"></line><line transform="translate(0,75)" x2="100" y2="0" style="fill: none; stroke: #ddd; stroke-width: 1; opacity: 1;"></line><line transform="translate(0,38)" x2="100" y2="0" style="fill: none; stroke: #ddd; stroke-width: 1; opacity: 1;"></line><line transform="translate(0,0)" x2="100" y2="0" style="fill: none; stroke: #ddd; stroke-width: 1; opacity: 1;"></line></g></g></g></g><g class="mark-group role-scope concat_2_child_pathgroup"><g transform="translate(0,0)"><path class="background" d="M0,0h100v300h-100Z" style="fill: none;"></path><g><g class="mark-area role-mark concat_2_child_marks"><path d="M49.17720760408117,300L49.18067706484763,288L49.272836138821624,276L49.76919011159515,264L51.12509996410629,252L71.24871026947267,240L98.35441519040603,228L89.38491167613955,216L81.61099278034402,204L66.18758743777772,192L58.253206828265,180L55.12370006566138,168L53.081906310003,156L52.227941317639626,144L51.67618958740032,131.99999999999997L50.94317457144858,120L50.66790298923931,108L50.36822118888436,95.99999999999997L50.046655224806905,84L49.750669457010524,72L49.62893207916055,60L49.56380613127156,48L49.44897815917599,36L49.3541316764033,24L49.27026257696882,12L49.28503833597941,0L49.06937685442661,0L49.084152613437205,12L49.000283514002724,24L48.90543703123004,36L48.79060905913446,48L48.72548311124549,60L48.603745733395506,72L48.30775996559914,84L47.98619400152166,95.99999999999997L47.68651220116671,108L47.41124061895745,120L46.67822560300571,131.99999999999997L46.126473872766404,144L45.27250888040301,156L43.230715124744634,168L40.101208362141016,180L32.166827752628315,192L16.743422410061996,204L8.969503514266478,216L0,228L27.105704920933363,240L47.22931522629974,252L48.585225078810865,264L49.081579051584406,276L49.1737381255584,288L49.17720758632486,300Z" style="fill: #f58518;"></path></g></g></g></g></g></g></g></g></g></g><g class="mark-group role-scope concat_3_group"><g transform="translate(942,0)"><path class="background" d="M0,0h0v0h0Z" style="fill: none;"></path><g><g class="mark-group role-column-title column-title"><g transform="translate(100,316)"><path class="background" d="M0,0h0v0h0Z" style="fill: none;"></path><g><g class="mark-text role-title" style="pointer-events: none;"><text text-anchor="middle" transform="translate(0,19)" style="font-family: sans-serif; font-size: 11px; font-weight: bold; fill: #000; opacity: 1;">BSMTDEVL</text></g></g></g></g><g class="mark-group role-row-header concat_3_row_header"><g transform="translate(0,0)"><path class="background" d="M0,0h0v300h0Z" style="fill: none;"></path><g><g class="mark-group role-axis"><g transform="translate(0.5,0.5)"><path class="background" d="M0,0h0v0h0Z" style="pointer-events: none; fill: none;"></path><g><g class="mark-rule role-axis-tick" style="pointer-events: none;"><line transform="translate(0,300)" x2="-5" y2="0" style="fill: none; stroke: #888; stroke-width: 1; opacity: 1;"></line><line transform="translate(0,263)" x2="-5" y2="0" style="fill: none; stroke: #888; stroke-width: 1; opacity: 1;"></line><line transform="translate(0,225)" x2="-5" y2="0" style="fill: none; stroke: #888; stroke-width: 1; opacity: 1;"></line><line transform="translate(0,188)" x2="-5" y2="0" style="fill: none; stroke: #888; stroke-width: 1; opacity: 1;"></line><line transform="translate(0,150)" x2="-5" y2="0" style="fill: none; stroke: #888; stroke-width: 1; opacity: 1;"></line><line transform="translate(0,113)" x2="-5" y2="0" style="fill: none; stroke: #888; stroke-width: 1; opacity: 1;"></line><line transform="translate(0,75)" x2="-5" y2="0" style="fill: none; stroke: #888; stroke-width: 1; opacity: 1;"></line><line transform="translate(0,38)" x2="-5" y2="0" style="fill: none; stroke: #888; stroke-width: 1; opacity: 1;"></line><line transform="translate(0,0)" x2="-5" y2="0" style="fill: none; stroke: #888; stroke-width: 1; opacity: 1;"></line></g><g class="mark-text role-axis-label" style="pointer-events: none;"><text text-anchor="end" transform="translate(-7,303)" style="font-family: sans-serif; font-size: 10px; fill: #000; opacity: 1;">0</text><text text-anchor="end" transform="translate(-7,265.5)" style="font-family: sans-serif; font-size: 10px; fill: #000; opacity: 1;">200,000</text><text text-anchor="end" transform="translate(-7,228)" style="font-family: sans-serif; font-size: 10px; fill: #000; opacity: 1;">400,000</text><text text-anchor="end" transform="translate(-7,190.5)" style="font-family: sans-serif; font-size: 10px; fill: #000; opacity: 1;">600,000</text><text text-anchor="end" transform="translate(-7,153)" style="font-family: sans-serif; font-size: 10px; fill: #000; opacity: 1;">800,000</text><text text-anchor="end" transform="translate(-7,115.5)" style="font-family: sans-serif; font-size: 10px; fill: #000; opacity: 1;">1,000,000</text><text text-anchor="end" transform="translate(-7,78)" style="font-family: sans-serif; font-size: 10px; fill: #000; opacity: 1;">1,200,000</text><text text-anchor="end" transform="translate(-7,40.5)" style="font-family: sans-serif; font-size: 10px; fill: #000; opacity: 1;">1,400,000</text><text text-anchor="end" transform="translate(-7,3)" style="font-family: sans-serif; font-size: 10px; fill: #000; opacity: 1;">1,600,000</text></g><g class="mark-rule role-axis-domain" style="pointer-events: none;"><line transform="translate(0,300)" x2="0" y2="-300" style="fill: none; stroke: #888; stroke-width: 1; opacity: 1;"></line></g><g class="mark-text role-axis-title" style="pointer-events: none;"><text text-anchor="middle" transform="translate(-83,150) rotate(-90) translate(0,-2)" style="font-family: sans-serif; font-size: 11px; font-weight: bold; fill: #000; opacity: 1;">ASSESSMENT</text></g></g></g></g></g></g></g><g class="mark-group role-column-header concat_3_column_header"><g transform="translate(0,0)"><path class="background" d="M0,0h100v0h-100Z" style="fill: none;"></path><g><g class="mark-text role-title" style="pointer-events: none;"><text text-anchor="middle" transform="translate(50,8)" style="font-family: sans-serif; font-size: 10px; fill: #000; opacity: 1;">N</text></g></g></g><g transform="translate(100,0)"><path class="background" d="M0,0h100v0h-100Z" style="fill: none;"></path><g><g class="mark-text role-title" style="pointer-events: none;"><text text-anchor="middle" transform="translate(50,8)" style="font-family: sans-serif; font-size: 10px; fill: #000; opacity: 1;">Y</text></g></g></g></g><g class="mark-group role-column-footer concat_3_column_footer"><g transform="translate(0,300)"><path class="background" d="M0,0h100v0h-100Z" style="fill: none;"></path><g><g class="mark-group role-axis"><g transform="translate(0.5,0.5)"><path class="background" d="M0,0h0v0h0Z" style="pointer-events: none; fill: none;"></path><g><g class="mark-rule role-axis-tick" style="pointer-events: none;"><line transform="translate(0,0)" x2="0" y2="5" style="fill: none; stroke: #888; stroke-width: 1; opacity: 1;"></line></g><g class="mark-rule role-axis-domain" style="pointer-events: none;"><line transform="translate(0,0)" x2="100" y2="0" style="fill: none; stroke: #888; stroke-width: 1; opacity: 1;"></line></g></g></g></g></g></g><g transform="translate(100,300)"><path class="background" d="M0,0h100v0h-100Z" style="fill: none;"></path><g><g class="mark-group role-axis"><g transform="translate(0.5,0.5)"><path class="background" d="M0,0h0v0h0Z" style="pointer-events: none; fill: none;"></path><g><g class="mark-rule role-axis-tick" style="pointer-events: none;"><line transform="translate(0,0)" x2="0" y2="5" style="fill: none; stroke: #888; stroke-width: 1; opacity: 1;"></line></g><g class="mark-rule role-axis-domain" style="pointer-events: none;"><line transform="translate(0,0)" x2="100" y2="0" style="fill: none; stroke: #888; stroke-width: 1; opacity: 1;"></line></g></g></g></g></g></g></g><g class="mark-group role-scope concat_3_cell"><g transform="translate(0,0)"><path class="background" d="M0,0h100v300h-100Z" style="fill: none;"></path><g><g class="mark-group role-axis"><g transform="translate(0.5,0.5)"><path class="background" d="M0,0h0v0h0Z" style="pointer-events: none; fill: none;"></path><g><g class="mark-rule role-axis-grid" style="pointer-events: none;"><line transform="translate(0,300)" x2="100" y2="0" style="fill: none; stroke: #ddd; stroke-width: 1; opacity: 1;"></line><line transform="translate(0,263)" x2="100" y2="0" style="fill: none; stroke: #ddd; stroke-width: 1; opacity: 1;"></line><line transform="translate(0,225)" x2="100" y2="0" style="fill: none; stroke: #ddd; stroke-width: 1; opacity: 1;"></line><line transform="translate(0,188)" x2="100" y2="0" style="fill: none; stroke: #ddd; stroke-width: 1; opacity: 1;"></line><line transform="translate(0,150)" x2="100" y2="0" style="fill: none; stroke: #ddd; stroke-width: 1; opacity: 1;"></line><line transform="translate(0,113)" x2="100" y2="0" style="fill: none; stroke: #ddd; stroke-width: 1; opacity: 1;"></line><line transform="translate(0,75)" x2="100" y2="0" style="fill: none; stroke: #ddd; stroke-width: 1; opacity: 1;"></line><line transform="translate(0,38)" x2="100" y2="0" style="fill: none; stroke: #ddd; stroke-width: 1; opacity: 1;"></line><line transform="translate(0,0)" x2="100" y2="0" style="fill: none; stroke: #ddd; stroke-width: 1; opacity: 1;"></line></g></g></g></g><g class="mark-group role-scope concat_3_child_pathgroup"><g transform="translate(0,0)"><path class="background" d="M0,0h100v300h-100Z" style="fill: none;"></path><g><g class="mark-area role-mark concat_3_child_marks"><path d="M44.85004089790268,300L44.90965234190533,288L46.09648601603013,276L48.45846873556771,264L49.810484371391,252L65.78303978712096,240L81.88077240745984,228L83.0827602935067,216L80.9160439514255,204L57.8360237123323,192L52.13769661909085,180L49.18532134093284,168L47.197099443824584,156L46.012301482948516,144L46.04688233283108,131.99999999999997L45.49240498958605,120L45.19291631700098,108L45.050062301855526,95.99999999999997L44.95543181636397,84L44.993625225860946,72L44.887764027792386,60L44.93338349569305,48L44.930388811739384,36L44.89764098166004,24L44.863342234116246,12L44.860193417584334,0L44.784964613010175,0L44.78181579647826,12L44.74751704893447,24L44.7147692188551,36L44.71177453490146,48L44.75739400280212,60L44.65153280473355,72L44.68972621423053,84L44.59509572873897,95.99999999999997L44.45224171359353,108L44.15275304100845,120L43.59827569776343,131.99999999999997L43.63285654764598,144L42.44805858676992,156L40.45983668966166,168L37.50746141150364,180L31.809134318262196,192L8.729114079168994,204L6.562397737087792,216L7.7643856231346575,228L23.862118243473546,240L39.834673659203496,252L41.18668929502679,264L43.548672014564374,276L44.73550568868916,288L44.795117132691814,300Z" style="fill: #4c78a8;"></path></g></g></g></g></g></g><g transform="translate(100,0)"><path class="background" d="M0,0h100v300h-100Z" style="fill: none;"></path><g><g class="mark-group role-axis"><g transform="translate(0.5,0.5)"><path class="background" d="M0,0h0v0h0Z" style="pointer-events: none; fill: none;"></path><g><g class="mark-rule role-axis-grid" style="pointer-events: none;"><line transform="translate(0,300)" x2="100" y2="0" style="fill: none; stroke: #ddd; stroke-width: 1; opacity: 1;"></line><line transform="translate(0,263)" x2="100" y2="0" style="fill: none; stroke: #ddd; stroke-width: 1; opacity: 1;"></line><line transform="translate(0,225)" x2="100" y2="0" style="fill: none; stroke: #ddd; stroke-width: 1; opacity: 1;"></line><line transform="translate(0,188)" x2="100" y2="0" style="fill: none; stroke: #ddd; stroke-width: 1; opacity: 1;"></line><line transform="translate(0,150)" x2="100" y2="0" style="fill: none; stroke: #ddd; stroke-width: 1; opacity: 1;"></line><line transform="translate(0,113)" x2="100" y2="0" style="fill: none; stroke: #ddd; stroke-width: 1; opacity: 1;"></line><line transform="translate(0,75)" x2="100" y2="0" style="fill: none; stroke: #ddd; stroke-width: 1; opacity: 1;"></line><line transform="translate(0,38)" x2="100" y2="0" style="fill: none; stroke: #ddd; stroke-width: 1; opacity: 1;"></line><line transform="translate(0,0)" x2="100" y2="0" style="fill: none; stroke: #ddd; stroke-width: 1; opacity: 1;"></line></g></g></g></g><g class="mark-group role-scope concat_3_child_pathgroup"><g transform="translate(0,0)"><path class="background" d="M0,0h100v300h-100Z" style="fill: none;"></path><g><g class="mark-area role-mark concat_3_child_marks"><path d="M44.822579015297315,300L44.82258798061714,288L44.856761095558916,276L45.087709237127996,264L46.530482489995336,252L64.98142459211435,240L89.6451580305945,228L79.07487506605744,216L70.63722109672969,204L60.54498132294286,192L53.04933352108815,180L50.3333500826219,168L48.574992719549655,156L47.90262164587917,144L47.23947756345094,131.99999999999997L46.61205689336463,120L46.392237584425345,108L46.08600895212804,95.99999999999997L45.75979684810698,84L45.410126423687345,72L45.30135232829895,60L45.21235251977669,48L45.096063332609745,36L45.01102217156157,24L44.92249351950389,12L44.928821131937475,0L44.71633689865703,0L44.722664511090606,12L44.63413585903293,24L44.549094697984756,36L44.43280551081781,48L44.34380570229554,60L44.23503160690716,72L43.88536118248752,84L43.559149078466454,95.99999999999997L43.25292044616916,108L43.03310113722986,120L42.40568046714356,131.99999999999997L41.74253638471532,144L41.07016531104484,156L39.3118079479726,168L36.59582450950635,180L29.10017670765163,192L19.007936933864812,204L10.570282964537057,216L0,228L24.66373343848015,240L43.11467554059916,252L44.5574487934665,264L44.788396935035585,276L44.82257004997736,288L44.82257901529718,300Z" style="fill: #f58518;"></path></g></g></g></g></g></g></g></g></g></g></g></g></g></g></svg>